<svg width="20" height="20" viewBox="0 0 20 20" fill="none" xmlns="http://www.w3.org/2000/svg">
<path d="M0.75 0.75H1.01835C1.49213 0.75 1.72943 0.75 1.92267 0.835478C2.09304 0.910841 2.23871 1.03218 2.34375 1.18604C2.46269 1.36026 2.50564 1.5929 2.59137 2.05727L4.75004 13.75L15.1718 13.75C15.625 13.75 15.8523 13.75 16.04 13.6699C16.2059 13.5992 16.3489 13.4846 16.4551 13.3389C16.5752 13.1742 16.6261 12.9537 16.7277 12.5131L16.7285 12.51L18.2977 5.70996L18.2981 5.70854C18.4523 5.04016 18.5296 4.70515 18.4447 4.44238C18.3702 4.21182 18.2135 4.01634 18.0056 3.89192C17.7684 3.75 17.4258 3.75 16.7387 3.75H3.25M15.75 18.75C15.1977 18.75 14.75 18.3023 14.75 17.75C14.75 17.1977 15.1977 16.75 15.75 16.75C16.3023 16.75 16.75 17.1977 16.75 17.75C16.75 18.3023 16.3023 18.75 15.75 18.75ZM5.75 18.75C5.19772 18.75 4.75 18.3023 4.75 17.75C4.75 17.1977 5.19772 16.75 5.75 16.75C6.30228 16.75 6.75 17.1977 6.75 17.75C6.75 18.3023 6.30228 18.75 5.75 18.75Z" stroke="#FF3102" stroke-width="1.5" stroke-linecap="round" stroke-linejoin="round"/>
</svg>
