<svg width="100" height="85" viewBox="0 0 100 85" fill="none" xmlns="http://www.w3.org/2000/svg">
<path d="M100 50C100 43.3532 98.6747 36.7731 96.1017 30.6445C93.5286 24.5159 89.7594 18.9618 85.0145 14.3071C80.2696 9.65238 74.6443 5.99045 68.4674 3.53545C62.2906 1.08046 55.6862 -0.118329 49.0406 0.00920452C42.395 0.136738 35.8416 1.58803 29.7635 4.27821C23.6854 6.96838 18.2046 10.8434 13.6418 15.6768C9.07902 20.5101 5.5257 26.2047 3.18967 32.4275C0.853639 38.6503 -0.218206 45.2764 0.0368147 51.9184L35.1993 50.5683C35.1238 48.6007 35.4413 46.6379 36.1333 44.7945C36.8253 42.9511 37.8779 41.2642 39.2295 39.8324C40.5812 38.4006 42.2048 37.2527 44.0053 36.4557C45.8058 35.6588 47.7472 35.2289 49.7158 35.1911C51.6844 35.1533 53.6409 35.5085 55.4706 36.2357C57.3004 36.963 58.9668 38.0477 60.3724 39.4266C61.778 40.8055 62.8946 42.4508 63.6568 44.2663C64.419 46.0818 64.8116 48.031 64.8116 50H100Z" fill="#FF3102"/>
<mask id="path-2-outside-1_48_1328" maskUnits="userSpaceOnUse" x="13.3853" y="25.6914" width="74" height="49" fill="black">
<rect fill="white" x="13.3853" y="25.6914" width="74" height="49"/>
<path d="M32.4016 60.4116V54.4606H37.4381V56.6587H37.4901C38.3353 54.9885 39.4516 54.1145 41.3583 54.1145C41.8631 54.1145 42.3651 54.1924 42.8929 54.3279V58.2049C43.9862 55.7876 46.3545 54.1174 49.4843 54.1174C54.942 54.1174 57.2958 57.1376 57.2958 62.5174H47.2343C47.3699 64.1068 48.241 65.1885 49.9083 65.1885C50.7564 65.1885 51.6824 64.8741 52.1064 64.2078H56.7622C56.7433 64.041 56.7318 63.8736 56.7276 63.7058H61.7324C61.7492 63.9411 61.8139 64.1704 61.9225 64.3797C62.0312 64.5891 62.1814 64.774 62.3641 64.9231C62.6622 65.1866 63.1314 65.3183 63.7718 65.3183C64.4612 65.3183 65.543 65.0501 65.543 64.2597C65.543 63.4664 65.093 63.2241 62.6583 62.803C58.6574 62.1424 57.042 60.8414 57.042 58.4847C57.042 55.0174 60.7776 54.1145 63.5324 54.1145C66.5006 54.1145 70.0776 54.9366 70.2074 58.4616H65.442C65.4269 58.2538 65.3642 58.0523 65.2586 57.8727C65.1531 57.6931 65.0075 57.5403 64.8333 57.426C64.5038 57.1606 64.0909 57.0206 63.668 57.0308C62.9237 57.0308 62.0785 57.2154 62.0785 58.0895C62.0785 58.4847 62.393 58.6722 62.6872 58.8049C63.5324 59.151 65.5487 59.3068 67.2968 59.8635C69.068 60.4174 70.5853 61.4529 70.5853 63.7058H74.9958C75.013 63.9413 75.0782 64.1708 75.1873 64.3801C75.2964 64.5894 75.4472 64.7742 75.6305 64.9231C75.9266 65.1866 76.3958 65.3183 77.0381 65.3183C77.7247 65.3183 78.8122 65.0501 78.8122 64.2597C78.8122 63.4664 78.3593 63.2241 75.9247 62.803C71.9237 62.1424 70.3083 60.8414 70.3083 58.4847C70.3083 55.0174 74.041 54.1145 76.7987 54.1145C79.7641 54.1145 83.3468 54.9366 83.4737 58.4616H78.7055C78.6926 58.2533 78.6308 58.0509 78.525 57.871C78.4193 57.6911 78.2725 57.5386 78.0968 57.426C77.7681 57.1612 77.3563 57.0213 76.9343 57.0308C76.1901 57.0308 75.3449 57.2154 75.3449 58.0895C75.3449 58.4847 75.6622 58.6722 75.9535 58.8049C76.7987 59.151 78.8151 59.3068 80.5603 59.8635C82.3343 60.4174 83.8487 61.4529 83.8487 63.7058C83.8487 67.5164 80.1968 68.552 76.8564 68.552C74.1737 68.552 71.2747 67.6606 70.3199 65.3328C69.4199 67.8222 66.3939 68.552 63.5872 68.552C60.6593 68.552 57.466 67.4876 56.8372 64.6433C55.6574 67.3116 52.8795 68.5549 49.9343 68.5549C45.5381 68.5549 42.2266 65.9616 42.2266 61.3779C42.2285 60.4933 42.3622 59.6578 42.6276 58.8712C42.0472 58.6814 41.4378 58.5955 40.8276 58.6174C38.7333 58.6174 37.6487 59.8087 37.6487 62.7741V68.2058H32.4016V62.5145C32.1304 65.4828 30.691 68.552 26.5949 68.552C25.0054 68.552 23.6526 67.8655 22.8333 66.6972H22.7756V72.6568H17.5372V54.4606H22.5997V55.9693H22.6516C23.2862 55.1241 24.1372 54.1145 26.6756 54.1145C30.2064 54.1145 32.0814 57.2472 32.4016 60.4116ZM24.8987 64.7385C26.7824 64.7385 27.2035 62.9674 27.2035 61.3491C27.2035 59.7279 26.7795 57.9308 24.8987 57.9308C23.0208 57.9308 22.5939 59.7308 22.5939 61.3491C22.5939 62.9616 23.0208 64.7385 24.8987 64.7385ZM52.268 59.7885V59.7395C52.2649 59.1414 52.026 58.5687 51.6031 58.1457C51.1801 57.7228 50.6074 57.4839 50.0093 57.4808H49.9574C48.3708 57.4808 47.4939 58.303 47.2574 59.7885H52.268ZM53.1189 38.8001C53.217 39.5674 53.2141 40.3751 53.2141 41.177V48.6453C53.2141 50.0126 53.2458 51.5529 54.0564 52.7097H46.9776C46.7942 52.1558 46.7112 51.5735 46.7324 50.9904H46.6603C45.1545 52.6722 43.0516 53.1626 40.8074 53.1626C37.3026 53.1626 34.3949 51.4837 34.3949 47.6587C34.3949 47.2587 34.4266 46.8866 34.4901 46.5424C33.4343 50.8001 29.7679 53.1654 25.2333 53.1654C19.7641 53.1654 15.3853 49.3837 15.3853 43.6347C15.3853 37.8856 19.7641 34.0693 25.2304 34.0693C30.0304 34.0693 34.0228 36.3799 34.4843 41.4279H27.8958C27.8237 40.6578 27.5785 40.0981 27.1256 39.7087C26.6339 39.3018 26.0096 39.0902 25.3718 39.1145C22.7093 39.1145 22.3228 41.4251 22.3228 43.6347C22.3228 45.8789 22.7064 48.1203 25.3718 48.1203C26.8776 48.1203 27.9304 46.8914 28.0689 45.4578H34.6949C34.6673 45.6725 34.6317 45.8861 34.5881 46.0981C35.7189 41.9241 41.5083 42.0885 44.6612 41.4568C45.6074 41.2837 46.5564 41.001 46.5564 39.8472C46.5564 38.6183 45.3997 38.1654 44.2776 38.1654C42.1747 38.1654 41.6814 39.2529 41.6814 40.0231H35.2401C35.4131 34.8683 40.317 34.0635 44.5949 34.0635C50.6699 34.0635 52.4641 35.8289 52.992 38.0904V34.5251H55.8276C55.7266 32.7395 55.8997 30.7751 57.2641 29.4106C58.7699 27.8991 60.5237 27.6914 63.3247 27.6914C64.4122 27.6914 65.3555 27.7981 66.4458 27.8328V32.5981C65.8862 32.4914 65.3237 32.3529 64.7641 32.3529C63.0853 32.3529 62.5199 32.8433 62.6295 34.5251H66.2756V38.1799C67.9141 35.6991 70.7295 34.0693 74.2805 34.0693C81.4978 34.0693 84.616 38.0674 84.616 45.1808H71.3006C71.4766 47.2808 72.6305 48.7174 74.8372 48.7174C75.9622 48.7174 77.1881 48.2933 77.7449 47.4193H84.2295C82.8276 51.3453 78.9708 53.1654 74.8747 53.1654C69.0564 53.1654 64.6776 49.7356 64.6776 43.6722C64.6776 41.8953 65.1074 40.2308 65.8978 38.8001H62.7708V52.7126H55.8276V38.8001H53.1189ZM46.5593 44.5433C45.717 44.9674 44.7737 45.1751 43.8276 45.4203C42.2814 45.8039 41.4766 46.1558 41.4766 47.3818C41.4766 48.2241 42.3881 49.0606 43.6516 49.0606C45.2295 49.0606 46.4554 48.1549 46.5593 46.2251V44.5433ZM77.9583 41.5635V41.5029C77.9545 40.7123 77.6388 39.9551 77.0797 39.396C76.5206 38.8369 75.7634 38.5212 74.9728 38.5174H74.9093C72.8064 38.5174 71.6526 39.5991 71.3353 41.5635H77.9583Z"/>
</mask>
<path d="M32.4016 60.4116V54.4606H37.4381V56.6587H37.4901C38.3353 54.9885 39.4516 54.1145 41.3583 54.1145C41.8631 54.1145 42.3651 54.1924 42.8929 54.3279V58.2049C43.9862 55.7876 46.3545 54.1174 49.4843 54.1174C54.942 54.1174 57.2958 57.1376 57.2958 62.5174H47.2343C47.3699 64.1068 48.241 65.1885 49.9083 65.1885C50.7564 65.1885 51.6824 64.8741 52.1064 64.2078H56.7622C56.7433 64.041 56.7318 63.8736 56.7276 63.7058H61.7324C61.7492 63.9411 61.8139 64.1704 61.9225 64.3797C62.0312 64.5891 62.1814 64.774 62.3641 64.9231C62.6622 65.1866 63.1314 65.3183 63.7718 65.3183C64.4612 65.3183 65.543 65.0501 65.543 64.2597C65.543 63.4664 65.093 63.2241 62.6583 62.803C58.6574 62.1424 57.042 60.8414 57.042 58.4847C57.042 55.0174 60.7776 54.1145 63.5324 54.1145C66.5006 54.1145 70.0776 54.9366 70.2074 58.4616H65.442C65.4269 58.2538 65.3642 58.0523 65.2586 57.8727C65.1531 57.6931 65.0075 57.5403 64.8333 57.426C64.5038 57.1606 64.0909 57.0206 63.668 57.0308C62.9237 57.0308 62.0785 57.2154 62.0785 58.0895C62.0785 58.4847 62.393 58.6722 62.6872 58.8049C63.5324 59.151 65.5487 59.3068 67.2968 59.8635C69.068 60.4174 70.5853 61.4529 70.5853 63.7058H74.9958C75.013 63.9413 75.0782 64.1708 75.1873 64.3801C75.2964 64.5894 75.4472 64.7742 75.6305 64.9231C75.9266 65.1866 76.3958 65.3183 77.0381 65.3183C77.7247 65.3183 78.8122 65.0501 78.8122 64.2597C78.8122 63.4664 78.3593 63.2241 75.9247 62.803C71.9237 62.1424 70.3083 60.8414 70.3083 58.4847C70.3083 55.0174 74.041 54.1145 76.7987 54.1145C79.7641 54.1145 83.3468 54.9366 83.4737 58.4616H78.7055C78.6926 58.2533 78.6308 58.0509 78.525 57.871C78.4193 57.6911 78.2725 57.5386 78.0968 57.426C77.7681 57.1612 77.3563 57.0213 76.9343 57.0308C76.1901 57.0308 75.3449 57.2154 75.3449 58.0895C75.3449 58.4847 75.6622 58.6722 75.9535 58.8049C76.7987 59.151 78.8151 59.3068 80.5603 59.8635C82.3343 60.4174 83.8487 61.4529 83.8487 63.7058C83.8487 67.5164 80.1968 68.552 76.8564 68.552C74.1737 68.552 71.2747 67.6606 70.3199 65.3328C69.4199 67.8222 66.3939 68.552 63.5872 68.552C60.6593 68.552 57.466 67.4876 56.8372 64.6433C55.6574 67.3116 52.8795 68.5549 49.9343 68.5549C45.5381 68.5549 42.2266 65.9616 42.2266 61.3779C42.2285 60.4933 42.3622 59.6578 42.6276 58.8712C42.0472 58.6814 41.4378 58.5955 40.8276 58.6174C38.7333 58.6174 37.6487 59.8087 37.6487 62.7741V68.2058H32.4016V62.5145C32.1304 65.4828 30.691 68.552 26.5949 68.552C25.0054 68.552 23.6526 67.8655 22.8333 66.6972H22.7756V72.6568H17.5372V54.4606H22.5997V55.9693H22.6516C23.2862 55.1241 24.1372 54.1145 26.6756 54.1145C30.2064 54.1145 32.0814 57.2472 32.4016 60.4116ZM24.8987 64.7385C26.7824 64.7385 27.2035 62.9674 27.2035 61.3491C27.2035 59.7279 26.7795 57.9308 24.8987 57.9308C23.0208 57.9308 22.5939 59.7308 22.5939 61.3491C22.5939 62.9616 23.0208 64.7385 24.8987 64.7385ZM52.268 59.7885V59.7395C52.2649 59.1414 52.026 58.5687 51.6031 58.1457C51.1801 57.7228 50.6074 57.4839 50.0093 57.4808H49.9574C48.3708 57.4808 47.4939 58.303 47.2574 59.7885H52.268ZM53.1189 38.8001C53.217 39.5674 53.2141 40.3751 53.2141 41.177V48.6453C53.2141 50.0126 53.2458 51.5529 54.0564 52.7097H46.9776C46.7942 52.1558 46.7112 51.5735 46.7324 50.9904H46.6603C45.1545 52.6722 43.0516 53.1626 40.8074 53.1626C37.3026 53.1626 34.3949 51.4837 34.3949 47.6587C34.3949 47.2587 34.4266 46.8866 34.4901 46.5424C33.4343 50.8001 29.7679 53.1654 25.2333 53.1654C19.7641 53.1654 15.3853 49.3837 15.3853 43.6347C15.3853 37.8856 19.7641 34.0693 25.2304 34.0693C30.0304 34.0693 34.0228 36.3799 34.4843 41.4279H27.8958C27.8237 40.6578 27.5785 40.0981 27.1256 39.7087C26.6339 39.3018 26.0096 39.0902 25.3718 39.1145C22.7093 39.1145 22.3228 41.4251 22.3228 43.6347C22.3228 45.8789 22.7064 48.1203 25.3718 48.1203C26.8776 48.1203 27.9304 46.8914 28.0689 45.4578H34.6949C34.6673 45.6725 34.6317 45.8861 34.5881 46.0981C35.7189 41.9241 41.5083 42.0885 44.6612 41.4568C45.6074 41.2837 46.5564 41.001 46.5564 39.8472C46.5564 38.6183 45.3997 38.1654 44.2776 38.1654C42.1747 38.1654 41.6814 39.2529 41.6814 40.0231H35.2401C35.4131 34.8683 40.317 34.0635 44.5949 34.0635C50.6699 34.0635 52.4641 35.8289 52.992 38.0904V34.5251H55.8276C55.7266 32.7395 55.8997 30.7751 57.2641 29.4106C58.7699 27.8991 60.5237 27.6914 63.3247 27.6914C64.4122 27.6914 65.3555 27.7981 66.4458 27.8328V32.5981C65.8862 32.4914 65.3237 32.3529 64.7641 32.3529C63.0853 32.3529 62.5199 32.8433 62.6295 34.5251H66.2756V38.1799C67.9141 35.6991 70.7295 34.0693 74.2805 34.0693C81.4978 34.0693 84.616 38.0674 84.616 45.1808H71.3006C71.4766 47.2808 72.6305 48.7174 74.8372 48.7174C75.9622 48.7174 77.1881 48.2933 77.7449 47.4193H84.2295C82.8276 51.3453 78.9708 53.1654 74.8747 53.1654C69.0564 53.1654 64.6776 49.7356 64.6776 43.6722C64.6776 41.8953 65.1074 40.2308 65.8978 38.8001H62.7708V52.7126H55.8276V38.8001H53.1189ZM46.5593 44.5433C45.717 44.9674 44.7737 45.1751 43.8276 45.4203C42.2814 45.8039 41.4766 46.1558 41.4766 47.3818C41.4766 48.2241 42.3881 49.0606 43.6516 49.0606C45.2295 49.0606 46.4554 48.1549 46.5593 46.2251V44.5433ZM77.9583 41.5635V41.5029C77.9545 40.7123 77.6388 39.9551 77.0797 39.396C76.5206 38.8369 75.7634 38.5212 74.9728 38.5174H74.9093C72.8064 38.5174 71.6526 39.5991 71.3353 41.5635H77.9583Z" fill="white"/>
<path d="M32.4016 60.4116V54.4606H37.4381V56.6587H37.4901C38.3353 54.9885 39.4516 54.1145 41.3583 54.1145C41.8631 54.1145 42.3651 54.1924 42.8929 54.3279V58.2049C43.9862 55.7876 46.3545 54.1174 49.4843 54.1174C54.942 54.1174 57.2958 57.1376 57.2958 62.5174H47.2343C47.3699 64.1068 48.241 65.1885 49.9083 65.1885C50.7564 65.1885 51.6824 64.8741 52.1064 64.2078H56.7622C56.7433 64.041 56.7318 63.8736 56.7276 63.7058H61.7324C61.7492 63.9411 61.8139 64.1704 61.9225 64.3797C62.0312 64.5891 62.1814 64.774 62.3641 64.9231C62.6622 65.1866 63.1314 65.3183 63.7718 65.3183C64.4612 65.3183 65.543 65.0501 65.543 64.2597C65.543 63.4664 65.093 63.2241 62.6583 62.803C58.6574 62.1424 57.042 60.8414 57.042 58.4847C57.042 55.0174 60.7776 54.1145 63.5324 54.1145C66.5006 54.1145 70.0776 54.9366 70.2074 58.4616H65.442C65.4269 58.2538 65.3642 58.0523 65.2586 57.8727C65.1531 57.6931 65.0075 57.5403 64.8333 57.426C64.5038 57.1606 64.0909 57.0206 63.668 57.0308C62.9237 57.0308 62.0785 57.2154 62.0785 58.0895C62.0785 58.4847 62.393 58.6722 62.6872 58.8049C63.5324 59.151 65.5487 59.3068 67.2968 59.8635C69.068 60.4174 70.5853 61.4529 70.5853 63.7058H74.9958C75.013 63.9413 75.0782 64.1708 75.1873 64.3801C75.2964 64.5894 75.4472 64.7742 75.6305 64.9231C75.9266 65.1866 76.3958 65.3183 77.0381 65.3183C77.7247 65.3183 78.8122 65.0501 78.8122 64.2597C78.8122 63.4664 78.3593 63.2241 75.9247 62.803C71.9237 62.1424 70.3083 60.8414 70.3083 58.4847C70.3083 55.0174 74.041 54.1145 76.7987 54.1145C79.7641 54.1145 83.3468 54.9366 83.4737 58.4616H78.7055C78.6926 58.2533 78.6308 58.0509 78.525 57.871C78.4193 57.6911 78.2725 57.5386 78.0968 57.426C77.7681 57.1612 77.3563 57.0213 76.9343 57.0308C76.1901 57.0308 75.3449 57.2154 75.3449 58.0895C75.3449 58.4847 75.6622 58.6722 75.9535 58.8049C76.7987 59.151 78.8151 59.3068 80.5603 59.8635C82.3343 60.4174 83.8487 61.4529 83.8487 63.7058C83.8487 67.5164 80.1968 68.552 76.8564 68.552C74.1737 68.552 71.2747 67.6606 70.3199 65.3328C69.4199 67.8222 66.3939 68.552 63.5872 68.552C60.6593 68.552 57.466 67.4876 56.8372 64.6433C55.6574 67.3116 52.8795 68.5549 49.9343 68.5549C45.5381 68.5549 42.2266 65.9616 42.2266 61.3779C42.2285 60.4933 42.3622 59.6578 42.6276 58.8712C42.0472 58.6814 41.4378 58.5955 40.8276 58.6174C38.7333 58.6174 37.6487 59.8087 37.6487 62.7741V68.2058H32.4016V62.5145C32.1304 65.4828 30.691 68.552 26.5949 68.552C25.0054 68.552 23.6526 67.8655 22.8333 66.6972H22.7756V72.6568H17.5372V54.4606H22.5997V55.9693H22.6516C23.2862 55.1241 24.1372 54.1145 26.6756 54.1145C30.2064 54.1145 32.0814 57.2472 32.4016 60.4116ZM24.8987 64.7385C26.7824 64.7385 27.2035 62.9674 27.2035 61.3491C27.2035 59.7279 26.7795 57.9308 24.8987 57.9308C23.0208 57.9308 22.5939 59.7308 22.5939 61.3491C22.5939 62.9616 23.0208 64.7385 24.8987 64.7385ZM52.268 59.7885V59.7395C52.2649 59.1414 52.026 58.5687 51.6031 58.1457C51.1801 57.7228 50.6074 57.4839 50.0093 57.4808H49.9574C48.3708 57.4808 47.4939 58.303 47.2574 59.7885H52.268ZM53.1189 38.8001C53.217 39.5674 53.2141 40.3751 53.2141 41.177V48.6453C53.2141 50.0126 53.2458 51.5529 54.0564 52.7097H46.9776C46.7942 52.1558 46.7112 51.5735 46.7324 50.9904H46.6603C45.1545 52.6722 43.0516 53.1626 40.8074 53.1626C37.3026 53.1626 34.3949 51.4837 34.3949 47.6587C34.3949 47.2587 34.4266 46.8866 34.4901 46.5424C33.4343 50.8001 29.7679 53.1654 25.2333 53.1654C19.7641 53.1654 15.3853 49.3837 15.3853 43.6347C15.3853 37.8856 19.7641 34.0693 25.2304 34.0693C30.0304 34.0693 34.0228 36.3799 34.4843 41.4279H27.8958C27.8237 40.6578 27.5785 40.0981 27.1256 39.7087C26.6339 39.3018 26.0096 39.0902 25.3718 39.1145C22.7093 39.1145 22.3228 41.4251 22.3228 43.6347C22.3228 45.8789 22.7064 48.1203 25.3718 48.1203C26.8776 48.1203 27.9304 46.8914 28.0689 45.4578H34.6949C34.6673 45.6725 34.6317 45.8861 34.5881 46.0981C35.7189 41.9241 41.5083 42.0885 44.6612 41.4568C45.6074 41.2837 46.5564 41.001 46.5564 39.8472C46.5564 38.6183 45.3997 38.1654 44.2776 38.1654C42.1747 38.1654 41.6814 39.2529 41.6814 40.0231H35.2401C35.4131 34.8683 40.317 34.0635 44.5949 34.0635C50.6699 34.0635 52.4641 35.8289 52.992 38.0904V34.5251H55.8276C55.7266 32.7395 55.8997 30.7751 57.2641 29.4106C58.7699 27.8991 60.5237 27.6914 63.3247 27.6914C64.4122 27.6914 65.3555 27.7981 66.4458 27.8328V32.5981C65.8862 32.4914 65.3237 32.3529 64.7641 32.3529C63.0853 32.3529 62.5199 32.8433 62.6295 34.5251H66.2756V38.1799C67.9141 35.6991 70.7295 34.0693 74.2805 34.0693C81.4978 34.0693 84.616 38.0674 84.616 45.1808H71.3006C71.4766 47.2808 72.6305 48.7174 74.8372 48.7174C75.9622 48.7174 77.1881 48.2933 77.7449 47.4193H84.2295C82.8276 51.3453 78.9708 53.1654 74.8747 53.1654C69.0564 53.1654 64.6776 49.7356 64.6776 43.6722C64.6776 41.8953 65.1074 40.2308 65.8978 38.8001H62.7708V52.7126H55.8276V38.8001H53.1189ZM46.5593 44.5433C45.717 44.9674 44.7737 45.1751 43.8276 45.4203C42.2814 45.8039 41.4766 46.1558 41.4766 47.3818C41.4766 48.2241 42.3881 49.0606 43.6516 49.0606C45.2295 49.0606 46.4554 48.1549 46.5593 46.2251V44.5433ZM77.9583 41.5635V41.5029C77.9545 40.7123 77.6388 39.9551 77.0797 39.396C76.5206 38.8369 75.7634 38.5212 74.9728 38.5174H74.9093C72.8064 38.5174 71.6526 39.5991 71.3353 41.5635H77.9583Z" stroke="#FF3102" stroke-width="4" mask="url(#path-2-outside-1_48_1328)"/>
</svg>
