<svg width="231" height="208" viewBox="0 0 231 208" fill="none" xmlns="http://www.w3.org/2000/svg">
<path d="M231 115.5C231 100.146 227.939 84.9457 221.995 70.7887C216.051 56.6316 207.344 43.8018 196.384 33.0494C185.423 22.297 172.428 13.8379 158.16 8.16689C143.891 2.49585 128.635 -0.27334 113.284 0.0212624C97.9325 0.315865 82.794 3.66835 68.7536 9.88266C54.7132 16.097 42.0527 25.0484 31.5126 36.2134C20.9725 47.3784 12.7644 60.5328 7.36813 74.9075C1.97191 89.2822 -0.504055 104.589 0.0850419 119.931L81.3104 116.813C81.1359 112.268 81.8693 107.733 83.4679 103.475C85.0664 99.217 87.4979 95.3202 90.6203 92.0128C93.7426 88.7053 97.493 86.0536 101.652 84.2128C105.811 82.3719 110.296 81.3788 114.844 81.2915C119.391 81.2042 123.91 82.0246 128.137 83.7045C132.364 85.3844 136.213 87.8903 139.46 91.0755C142.707 94.2607 145.286 98.0613 147.047 102.255C148.808 106.449 149.715 110.952 149.715 115.5H231Z" fill="#FF3102"/>
<mask id="path-2-outside-1_54_7" maskUnits="userSpaceOnUse" x="32.5386" y="60.9692" width="167" height="110" fill="black">
<rect fill="white" x="32.5386" y="60.9692" width="167" height="110"/>
<path d="M74.8463 139.553V125.806H86.4807V130.884H86.6007C88.5531 127.026 91.1318 125.007 95.5364 125.007C96.7025 125.007 97.8619 125.186 99.0813 125.5V134.455C101.607 128.871 107.077 125.013 114.307 125.013C126.915 125.013 132.352 131.99 132.352 144.417H109.11C109.423 148.089 111.435 150.588 115.287 150.588C117.246 150.588 119.385 149.861 120.364 148.322H131.119C131.076 147.937 131.049 147.55 131.039 147.163H142.6C142.639 147.706 142.789 148.236 143.04 148.719C143.291 149.203 143.638 149.63 144.06 149.975C144.748 150.583 145.832 150.887 147.311 150.887C148.904 150.887 151.403 150.268 151.403 148.442C151.403 146.609 150.363 146.05 144.739 145.077C135.497 143.551 131.766 140.546 131.766 135.102C131.766 127.092 140.395 125.007 146.758 125.007C153.615 125.007 161.878 126.906 162.178 135.048H151.17C151.135 134.568 150.99 134.103 150.746 133.688C150.502 133.273 150.166 132.92 149.764 132.656C149.003 132.043 148.049 131.72 147.072 131.743C145.352 131.743 143.4 132.17 143.4 134.189C143.4 135.102 144.126 135.535 144.806 135.841C146.758 136.641 151.416 137.001 155.454 138.287C159.546 139.566 163.051 141.958 163.051 147.163H173.239C173.279 147.706 173.429 148.237 173.681 148.72C173.933 149.204 174.282 149.631 174.705 149.975C175.389 150.583 176.473 150.887 177.957 150.887C179.543 150.887 182.055 150.268 182.055 148.442C182.055 146.609 181.009 146.05 175.385 145.077C166.142 143.551 162.411 140.546 162.411 135.102C162.411 127.092 171.033 125.007 177.404 125.007C184.254 125.007 192.53 126.906 192.823 135.048H181.808C181.779 134.567 181.636 134.1 181.391 133.684C181.147 133.268 180.808 132.916 180.402 132.656C179.643 132.045 178.692 131.721 177.717 131.743C175.998 131.743 174.045 132.17 174.045 134.189C174.045 135.102 174.778 135.535 175.451 135.841C177.404 136.641 182.061 137.001 186.093 138.287C190.191 139.566 193.689 141.958 193.689 147.163C193.689 155.965 185.253 158.357 177.537 158.357C171.34 158.357 164.643 156.298 162.438 150.921C160.359 156.671 153.369 158.357 146.885 158.357C140.122 158.357 132.745 155.898 131.293 149.328C128.567 155.492 122.15 158.364 115.347 158.364C105.192 158.364 97.5421 152.373 97.5421 141.785C97.5465 139.742 97.8553 137.811 98.4683 135.995C97.1276 135.556 95.72 135.358 94.3103 135.408C89.4726 135.408 86.9672 138.16 86.9672 145.01V157.558H74.8463V144.411C74.22 151.267 70.8949 158.357 61.4328 158.357C57.7612 158.357 54.6361 156.771 52.7436 154.073H52.6104V167.839H40.5095V125.806H52.2039V129.291H52.3238C53.7898 127.339 55.7555 125.007 61.6194 125.007C69.7754 125.007 74.1067 132.243 74.8463 139.553ZM57.5147 149.548C61.8659 149.548 62.8388 145.457 62.8388 141.719C62.8388 137.974 61.8592 133.822 57.5147 133.822C53.1768 133.822 52.1906 137.98 52.1906 141.719C52.1906 145.443 53.1768 149.548 57.5147 149.548ZM120.738 138.114V138C120.731 136.619 120.179 135.296 119.202 134.319C118.225 133.342 116.902 132.79 115.52 132.783H115.4C111.735 132.783 109.71 134.682 109.163 138.114H120.738ZM122.703 89.6302C122.93 91.4027 122.923 93.2685 122.923 95.1209V112.373C122.923 115.531 122.997 119.089 124.869 121.761H108.517C108.093 120.482 107.901 119.137 107.95 117.79H107.784C104.305 121.675 99.4478 122.808 94.2637 122.808C86.1676 122.808 79.4508 118.929 79.4508 110.094C79.4508 109.17 79.5241 108.31 79.6707 107.515C77.2319 117.35 68.7626 122.814 58.2876 122.814C45.6537 122.814 35.5386 114.078 35.5386 100.798C35.5386 87.5179 45.6537 78.7022 58.281 78.7022C69.369 78.7022 78.5912 84.0396 79.6574 95.7006H64.438C64.2714 93.9215 63.705 92.6288 62.6589 91.7292C61.523 90.7892 60.0808 90.3006 58.6075 90.3565C52.4571 90.3565 51.5642 95.694 51.5642 100.798C51.5642 105.982 52.4504 111.16 58.6075 111.16C62.0858 111.16 64.518 108.321 64.8378 105.009H80.1438C80.0801 105.506 79.9979 105.999 79.8972 106.489C82.5093 96.8468 95.8829 97.2266 103.166 95.7673C105.352 95.3675 107.544 94.7145 107.544 92.0491C107.544 89.2104 104.872 88.1643 102.28 88.1643C97.4221 88.1643 96.2827 90.6764 96.2827 92.4555H81.4032C81.803 80.5479 93.1309 78.6888 103.013 78.6888C117.046 78.6888 121.191 82.7669 122.41 87.991V79.755H128.96C128.727 75.6303 129.127 71.0925 132.279 67.9407C135.757 64.449 139.808 63.9692 146.279 63.9692C148.791 63.9692 150.97 64.2158 153.489 64.2957V75.3038C152.196 75.0572 150.896 74.7374 149.604 74.7374C145.726 74.7374 144.42 75.8702 144.673 79.755H153.095V88.1976C156.88 82.467 163.384 78.7022 171.586 78.7022C188.258 78.7022 195.462 87.9377 195.462 104.37H164.703C165.11 109.221 167.775 112.539 172.873 112.539C175.471 112.539 178.303 111.56 179.589 109.541H194.569C191.33 118.61 182.421 122.814 172.959 122.814C159.519 122.814 149.404 114.891 149.404 100.885C149.404 96.7801 150.397 92.9353 152.222 89.6302H144.999V121.768H128.96V89.6302H122.703ZM107.551 102.897C105.605 103.877 103.426 104.356 101.24 104.923C97.6687 105.809 95.8096 106.622 95.8096 109.454C95.8096 111.4 97.9152 113.332 100.834 113.332C104.479 113.332 107.311 111.24 107.551 106.782V102.897ZM180.082 96.0138V95.8739C180.074 94.0475 179.344 92.2984 178.053 91.0069C176.761 89.7154 175.012 88.986 173.186 88.9772H173.039C168.181 88.9772 165.516 91.476 164.783 96.0138H180.082Z"/>
</mask>
<path d="M74.8463 139.553V125.806H86.4807V130.884H86.6007C88.5531 127.026 91.1318 125.007 95.5364 125.007C96.7025 125.007 97.8619 125.186 99.0813 125.5V134.455C101.607 128.871 107.077 125.013 114.307 125.013C126.915 125.013 132.352 131.99 132.352 144.417H109.11C109.423 148.089 111.435 150.588 115.287 150.588C117.246 150.588 119.385 149.861 120.364 148.322H131.119C131.076 147.937 131.049 147.55 131.039 147.163H142.6C142.639 147.706 142.789 148.236 143.04 148.719C143.291 149.203 143.638 149.63 144.06 149.975C144.748 150.583 145.832 150.887 147.311 150.887C148.904 150.887 151.403 150.268 151.403 148.442C151.403 146.609 150.363 146.05 144.739 145.077C135.497 143.551 131.766 140.546 131.766 135.102C131.766 127.092 140.395 125.007 146.758 125.007C153.615 125.007 161.878 126.906 162.178 135.048H151.17C151.135 134.568 150.99 134.103 150.746 133.688C150.502 133.273 150.166 132.92 149.764 132.656C149.003 132.043 148.049 131.72 147.072 131.743C145.352 131.743 143.4 132.17 143.4 134.189C143.4 135.102 144.126 135.535 144.806 135.841C146.758 136.641 151.416 137.001 155.454 138.287C159.546 139.566 163.051 141.958 163.051 147.163H173.239C173.279 147.706 173.429 148.237 173.681 148.72C173.933 149.204 174.282 149.631 174.705 149.975C175.389 150.583 176.473 150.887 177.957 150.887C179.543 150.887 182.055 150.268 182.055 148.442C182.055 146.609 181.009 146.05 175.385 145.077C166.142 143.551 162.411 140.546 162.411 135.102C162.411 127.092 171.033 125.007 177.404 125.007C184.254 125.007 192.53 126.906 192.823 135.048H181.808C181.779 134.567 181.636 134.1 181.391 133.684C181.147 133.268 180.808 132.916 180.402 132.656C179.643 132.045 178.692 131.721 177.717 131.743C175.998 131.743 174.045 132.17 174.045 134.189C174.045 135.102 174.778 135.535 175.451 135.841C177.404 136.641 182.061 137.001 186.093 138.287C190.191 139.566 193.689 141.958 193.689 147.163C193.689 155.965 185.253 158.357 177.537 158.357C171.34 158.357 164.643 156.298 162.438 150.921C160.359 156.671 153.369 158.357 146.885 158.357C140.122 158.357 132.745 155.898 131.293 149.328C128.567 155.492 122.15 158.364 115.347 158.364C105.192 158.364 97.5421 152.373 97.5421 141.785C97.5465 139.742 97.8553 137.811 98.4683 135.995C97.1276 135.556 95.72 135.358 94.3103 135.408C89.4726 135.408 86.9672 138.16 86.9672 145.01V157.558H74.8463V144.411C74.22 151.267 70.8949 158.357 61.4328 158.357C57.7612 158.357 54.6361 156.771 52.7436 154.073H52.6104V167.839H40.5095V125.806H52.2039V129.291H52.3238C53.7898 127.339 55.7555 125.007 61.6194 125.007C69.7754 125.007 74.1067 132.243 74.8463 139.553ZM57.5147 149.548C61.8659 149.548 62.8388 145.457 62.8388 141.719C62.8388 137.974 61.8592 133.822 57.5147 133.822C53.1768 133.822 52.1906 137.98 52.1906 141.719C52.1906 145.443 53.1768 149.548 57.5147 149.548ZM120.738 138.114V138C120.731 136.619 120.179 135.296 119.202 134.319C118.225 133.342 116.902 132.79 115.52 132.783H115.4C111.735 132.783 109.71 134.682 109.163 138.114H120.738ZM122.703 89.6302C122.93 91.4027 122.923 93.2685 122.923 95.1209V112.373C122.923 115.531 122.997 119.089 124.869 121.761H108.517C108.093 120.482 107.901 119.137 107.95 117.79H107.784C104.305 121.675 99.4478 122.808 94.2637 122.808C86.1676 122.808 79.4508 118.929 79.4508 110.094C79.4508 109.17 79.5241 108.31 79.6707 107.515C77.2319 117.35 68.7626 122.814 58.2876 122.814C45.6537 122.814 35.5386 114.078 35.5386 100.798C35.5386 87.5179 45.6537 78.7022 58.281 78.7022C69.369 78.7022 78.5912 84.0396 79.6574 95.7006H64.438C64.2714 93.9215 63.705 92.6288 62.6589 91.7292C61.523 90.7892 60.0808 90.3006 58.6075 90.3565C52.4571 90.3565 51.5642 95.694 51.5642 100.798C51.5642 105.982 52.4504 111.16 58.6075 111.16C62.0858 111.16 64.518 108.321 64.8378 105.009H80.1438C80.0801 105.506 79.9979 105.999 79.8972 106.489C82.5093 96.8468 95.8829 97.2266 103.166 95.7673C105.352 95.3675 107.544 94.7145 107.544 92.0491C107.544 89.2104 104.872 88.1643 102.28 88.1643C97.4221 88.1643 96.2827 90.6764 96.2827 92.4555H81.4032C81.803 80.5479 93.1309 78.6888 103.013 78.6888C117.046 78.6888 121.191 82.7669 122.41 87.991V79.755H128.96C128.727 75.6303 129.127 71.0925 132.279 67.9407C135.757 64.449 139.808 63.9692 146.279 63.9692C148.791 63.9692 150.97 64.2158 153.489 64.2957V75.3038C152.196 75.0572 150.896 74.7374 149.604 74.7374C145.726 74.7374 144.42 75.8702 144.673 79.755H153.095V88.1976C156.88 82.467 163.384 78.7022 171.586 78.7022C188.258 78.7022 195.462 87.9377 195.462 104.37H164.703C165.11 109.221 167.775 112.539 172.873 112.539C175.471 112.539 178.303 111.56 179.589 109.541H194.569C191.33 118.61 182.421 122.814 172.959 122.814C159.519 122.814 149.404 114.891 149.404 100.885C149.404 96.7801 150.397 92.9353 152.222 89.6302H144.999V121.768H128.96V89.6302H122.703ZM107.551 102.897C105.605 103.877 103.426 104.356 101.24 104.923C97.6687 105.809 95.8096 106.622 95.8096 109.454C95.8096 111.4 97.9152 113.332 100.834 113.332C104.479 113.332 107.311 111.24 107.551 106.782V102.897ZM180.082 96.0138V95.8739C180.074 94.0475 179.344 92.2984 178.053 91.0069C176.761 89.7154 175.012 88.986 173.186 88.9772H173.039C168.181 88.9772 165.516 91.476 164.783 96.0138H180.082Z" fill="#FFD7A9"/>
<path d="M74.8463 139.553V125.806H86.4807V130.884H86.6007C88.5531 127.026 91.1318 125.007 95.5364 125.007C96.7025 125.007 97.8619 125.186 99.0813 125.5V134.455C101.607 128.871 107.077 125.013 114.307 125.013C126.915 125.013 132.352 131.99 132.352 144.417H109.11C109.423 148.089 111.435 150.588 115.287 150.588C117.246 150.588 119.385 149.861 120.364 148.322H131.119C131.076 147.937 131.049 147.55 131.039 147.163H142.6C142.639 147.706 142.789 148.236 143.04 148.719C143.291 149.203 143.638 149.63 144.06 149.975C144.748 150.583 145.832 150.887 147.311 150.887C148.904 150.887 151.403 150.268 151.403 148.442C151.403 146.609 150.363 146.05 144.739 145.077C135.497 143.551 131.766 140.546 131.766 135.102C131.766 127.092 140.395 125.007 146.758 125.007C153.615 125.007 161.878 126.906 162.178 135.048H151.17C151.135 134.568 150.99 134.103 150.746 133.688C150.502 133.273 150.166 132.92 149.764 132.656C149.003 132.043 148.049 131.72 147.072 131.743C145.352 131.743 143.4 132.17 143.4 134.189C143.4 135.102 144.126 135.535 144.806 135.841C146.758 136.641 151.416 137.001 155.454 138.287C159.546 139.566 163.051 141.958 163.051 147.163H173.239C173.279 147.706 173.429 148.237 173.681 148.72C173.933 149.204 174.282 149.631 174.705 149.975C175.389 150.583 176.473 150.887 177.957 150.887C179.543 150.887 182.055 150.268 182.055 148.442C182.055 146.609 181.009 146.05 175.385 145.077C166.142 143.551 162.411 140.546 162.411 135.102C162.411 127.092 171.033 125.007 177.404 125.007C184.254 125.007 192.53 126.906 192.823 135.048H181.808C181.779 134.567 181.636 134.1 181.391 133.684C181.147 133.268 180.808 132.916 180.402 132.656C179.643 132.045 178.692 131.721 177.717 131.743C175.998 131.743 174.045 132.17 174.045 134.189C174.045 135.102 174.778 135.535 175.451 135.841C177.404 136.641 182.061 137.001 186.093 138.287C190.191 139.566 193.689 141.958 193.689 147.163C193.689 155.965 185.253 158.357 177.537 158.357C171.34 158.357 164.643 156.298 162.438 150.921C160.359 156.671 153.369 158.357 146.885 158.357C140.122 158.357 132.745 155.898 131.293 149.328C128.567 155.492 122.15 158.364 115.347 158.364C105.192 158.364 97.5421 152.373 97.5421 141.785C97.5465 139.742 97.8553 137.811 98.4683 135.995C97.1276 135.556 95.72 135.358 94.3103 135.408C89.4726 135.408 86.9672 138.16 86.9672 145.01V157.558H74.8463V144.411C74.22 151.267 70.8949 158.357 61.4328 158.357C57.7612 158.357 54.6361 156.771 52.7436 154.073H52.6104V167.839H40.5095V125.806H52.2039V129.291H52.3238C53.7898 127.339 55.7555 125.007 61.6194 125.007C69.7754 125.007 74.1067 132.243 74.8463 139.553ZM57.5147 149.548C61.8659 149.548 62.8388 145.457 62.8388 141.719C62.8388 137.974 61.8592 133.822 57.5147 133.822C53.1768 133.822 52.1906 137.98 52.1906 141.719C52.1906 145.443 53.1768 149.548 57.5147 149.548ZM120.738 138.114V138C120.731 136.619 120.179 135.296 119.202 134.319C118.225 133.342 116.902 132.79 115.52 132.783H115.4C111.735 132.783 109.71 134.682 109.163 138.114H120.738ZM122.703 89.6302C122.93 91.4027 122.923 93.2685 122.923 95.1209V112.373C122.923 115.531 122.997 119.089 124.869 121.761H108.517C108.093 120.482 107.901 119.137 107.95 117.79H107.784C104.305 121.675 99.4478 122.808 94.2637 122.808C86.1676 122.808 79.4508 118.929 79.4508 110.094C79.4508 109.17 79.5241 108.31 79.6707 107.515C77.2319 117.35 68.7626 122.814 58.2876 122.814C45.6537 122.814 35.5386 114.078 35.5386 100.798C35.5386 87.5179 45.6537 78.7022 58.281 78.7022C69.369 78.7022 78.5912 84.0396 79.6574 95.7006H64.438C64.2714 93.9215 63.705 92.6288 62.6589 91.7292C61.523 90.7892 60.0808 90.3006 58.6075 90.3565C52.4571 90.3565 51.5642 95.694 51.5642 100.798C51.5642 105.982 52.4504 111.16 58.6075 111.16C62.0858 111.16 64.518 108.321 64.8378 105.009H80.1438C80.0801 105.506 79.9979 105.999 79.8972 106.489C82.5093 96.8468 95.8829 97.2266 103.166 95.7673C105.352 95.3675 107.544 94.7145 107.544 92.0491C107.544 89.2104 104.872 88.1643 102.28 88.1643C97.4221 88.1643 96.2827 90.6764 96.2827 92.4555H81.4032C81.803 80.5479 93.1309 78.6888 103.013 78.6888C117.046 78.6888 121.191 82.7669 122.41 87.991V79.755H128.96C128.727 75.6303 129.127 71.0925 132.279 67.9407C135.757 64.449 139.808 63.9692 146.279 63.9692C148.791 63.9692 150.97 64.2158 153.489 64.2957V75.3038C152.196 75.0572 150.896 74.7374 149.604 74.7374C145.726 74.7374 144.42 75.8702 144.673 79.755H153.095V88.1976C156.88 82.467 163.384 78.7022 171.586 78.7022C188.258 78.7022 195.462 87.9377 195.462 104.37H164.703C165.11 109.221 167.775 112.539 172.873 112.539C175.471 112.539 178.303 111.56 179.589 109.541H194.569C191.33 118.61 182.421 122.814 172.959 122.814C159.519 122.814 149.404 114.891 149.404 100.885C149.404 96.7801 150.397 92.9353 152.222 89.6302H144.999V121.768H128.96V89.6302H122.703ZM107.551 102.897C105.605 103.877 103.426 104.356 101.24 104.923C97.6687 105.809 95.8096 106.622 95.8096 109.454C95.8096 111.4 97.9152 113.332 100.834 113.332C104.479 113.332 107.311 111.24 107.551 106.782V102.897ZM180.082 96.0138V95.8739C180.074 94.0475 179.344 92.2984 178.053 91.0069C176.761 89.7154 175.012 88.986 173.186 88.9772H173.039C168.181 88.9772 165.516 91.476 164.783 96.0138H180.082Z" stroke="#FF3102" stroke-width="6" mask="url(#path-2-outside-1_54_7)"/>
</svg>
