<svg width="360" height="317" viewBox="0 0 360 317" fill="none" xmlns="http://www.w3.org/2000/svg">
<path d="M338.001 196.818C338.001 175.549 333.76 152.674 325.526 133.062C317.292 113.451 305.231 95.6778 290.047 80.7827C274.864 65.8876 256.863 54.1694 237.097 46.3134C217.331 38.4575 196.197 34.6213 174.931 35.0295C153.665 35.4376 132.694 40.0817 113.244 48.6903C93.7941 57.2988 76.2558 69.699 61.6548 85.1657C47.0538 100.632 36.2545 115.443 28.2078 138.768C20.7579 160.363 21.0009 196.818 21.0009 196.818H130.639C130.397 190.522 131.413 184.241 133.627 178.342C135.842 172.443 139.21 167.045 143.535 162.464C147.861 157.882 153.056 154.209 158.818 151.658C164.58 149.108 170.792 147.733 177.092 147.612C183.391 147.491 189.652 148.627 195.507 150.954C201.362 153.281 206.695 156.753 211.193 161.165C215.691 165.578 219.264 170.842 221.703 176.652C224.142 182.462 226.501 190.518 226.501 196.818H338.001Z" fill="#FF3102"/>
<mask id="path-2-outside-1_56_20" maskUnits="userSpaceOnUse" x="68.0009" y="106" width="225" height="167" fill="black">
<rect fill="white" x="68.0009" y="106" width="225" height="167"/>
<path d="M101.793 191.078C86.4069 191.078 73.9609 178.534 73.9609 163.148C73.9609 147.86 86.4069 135.316 101.793 135.316C111.201 135.316 119.531 140.02 124.627 147.076L108.065 158.052C106.595 156.68 104.243 155.7 101.793 155.7C97.4809 155.7 94.3449 159.032 94.3449 163.148C94.3449 167.362 97.4809 170.694 101.793 170.694C104.439 170.694 106.889 169.616 108.359 167.558L124.921 178.73C119.923 186.178 111.397 191.078 101.793 191.078ZM150.71 190.784C137.284 190.784 126.406 178.24 126.406 162.952C126.406 147.566 137.284 135.022 150.71 135.022C156.198 135.022 160.706 137.668 163.744 141.392L165.018 136.1H183.148V190H165.018L163.646 184.414C160.706 188.138 156.198 190.784 150.71 190.784ZM146.79 162.952C146.79 167.46 150.22 171.086 154.826 171.086C159.432 171.086 163.058 167.46 163.058 162.952C163.058 158.346 159.432 154.72 154.826 154.72C150.22 154.72 146.79 158.346 146.79 162.952ZM214.966 190L194.876 189.902V153.74H188.016V136.1H194.876V135.708C194.876 118.46 206.832 111.6 219.18 111.6C223.59 111.6 227.412 112.286 230.744 113.56L225.746 131.298C224.08 131.004 223.198 130.808 221.434 130.808C216.926 130.808 214.966 132.964 214.966 135.708V136.1H225.746V153.74H214.966V190ZM258.111 191.078C240.471 191.078 228.809 178.534 228.809 163.148C228.809 147.86 241.255 135.316 256.641 135.316C272.027 135.316 284.571 147.86 284.571 163.148C284.571 164.814 284.375 167.264 284.081 169.224H250.467C252.035 172.85 255.073 175.398 259.385 175.398C263.893 175.398 266.539 173.634 268.499 172.164L282.121 180.886C276.829 187.354 266.735 191.078 258.111 191.078ZM249.977 156.484H264.187C262.913 151.976 260.267 150.506 257.131 150.506C253.995 150.506 251.251 152.074 249.977 156.484ZM75.2009 267.6V206H90.0009L91.1209 210.56C93.5209 207.52 97.2009 205.36 101.681 205.36C112.641 205.36 121.521 215.6 121.521 228.08C121.521 240.64 112.641 250.88 101.681 250.88C97.5209 250.88 94.0009 249.04 91.6009 246.32V267.6H75.2009ZM91.6009 228.08C91.6009 231.84 94.5609 234.8 98.3209 234.8C102.081 234.8 104.881 231.84 104.881 228.08C104.881 224.4 102.081 221.44 98.3209 221.44C94.5609 221.44 91.6009 224.4 91.6009 228.08ZM126.295 250V206H141.095L142.375 210.96C144.855 207.6 148.695 205.6 154.055 205.6C155.735 205.6 157.415 205.76 159.015 206L155.655 221.68C155.255 221.6 154.935 221.6 154.535 221.6C149.815 221.6 142.695 222.8 142.695 234.16V250H126.295ZM181.74 250.88C167.34 250.88 157.82 240.64 157.82 228.08C157.82 215.6 167.98 205.36 180.54 205.36C193.1 205.36 203.34 215.6 203.34 228.08C203.34 229.44 203.18 231.44 202.94 233.04H175.5C176.78 236 179.26 238.08 182.78 238.08C186.46 238.08 188.62 236.64 190.22 235.44L201.34 242.56C197.02 247.84 188.78 250.88 181.74 250.88ZM175.1 222.64H186.7C185.66 218.96 183.5 217.76 180.94 217.76C178.38 217.76 176.14 219.04 175.1 222.64ZM225.167 251.44C217.887 251.44 210.607 248.96 205.407 244.08L214.927 234.88C217.647 236.96 220.847 238.32 224.767 238.32C226.687 238.32 228.047 237.68 228.047 236.56C228.047 232.4 206.687 234.24 206.687 219.28C206.687 210.48 213.967 204.88 224.527 204.88C231.407 204.88 238.847 206.64 243.727 212.16L235.247 220.56C233.247 218.64 229.327 217.44 226.687 217.44C224.047 217.44 223.087 218.24 223.087 219.04C223.087 222.96 244.687 220.4 244.687 236.08C244.687 246.64 235.727 251.44 225.167 251.44ZM266.886 251.44C259.606 251.44 252.326 248.96 247.126 244.08L256.646 234.88C259.366 236.96 262.566 238.32 266.486 238.32C268.406 238.32 269.766 237.68 269.766 236.56C269.766 232.4 248.406 234.24 248.406 219.28C248.406 210.48 255.686 204.88 266.246 204.88C273.126 204.88 280.566 206.64 285.446 212.16L276.966 220.56C274.966 218.64 271.046 217.44 268.406 217.44C265.766 217.44 264.806 218.24 264.806 219.04C264.806 222.96 286.406 220.4 286.406 236.08C286.406 246.64 277.446 251.44 266.886 251.44Z"/>
</mask>
<path d="M101.793 191.078C86.4069 191.078 73.9609 178.534 73.9609 163.148C73.9609 147.86 86.4069 135.316 101.793 135.316C111.201 135.316 119.531 140.02 124.627 147.076L108.065 158.052C106.595 156.68 104.243 155.7 101.793 155.7C97.4809 155.7 94.3449 159.032 94.3449 163.148C94.3449 167.362 97.4809 170.694 101.793 170.694C104.439 170.694 106.889 169.616 108.359 167.558L124.921 178.73C119.923 186.178 111.397 191.078 101.793 191.078ZM150.71 190.784C137.284 190.784 126.406 178.24 126.406 162.952C126.406 147.566 137.284 135.022 150.71 135.022C156.198 135.022 160.706 137.668 163.744 141.392L165.018 136.1H183.148V190H165.018L163.646 184.414C160.706 188.138 156.198 190.784 150.71 190.784ZM146.79 162.952C146.79 167.46 150.22 171.086 154.826 171.086C159.432 171.086 163.058 167.46 163.058 162.952C163.058 158.346 159.432 154.72 154.826 154.72C150.22 154.72 146.79 158.346 146.79 162.952ZM214.966 190L194.876 189.902V153.74H188.016V136.1H194.876V135.708C194.876 118.46 206.832 111.6 219.18 111.6C223.59 111.6 227.412 112.286 230.744 113.56L225.746 131.298C224.08 131.004 223.198 130.808 221.434 130.808C216.926 130.808 214.966 132.964 214.966 135.708V136.1H225.746V153.74H214.966V190ZM258.111 191.078C240.471 191.078 228.809 178.534 228.809 163.148C228.809 147.86 241.255 135.316 256.641 135.316C272.027 135.316 284.571 147.86 284.571 163.148C284.571 164.814 284.375 167.264 284.081 169.224H250.467C252.035 172.85 255.073 175.398 259.385 175.398C263.893 175.398 266.539 173.634 268.499 172.164L282.121 180.886C276.829 187.354 266.735 191.078 258.111 191.078ZM249.977 156.484H264.187C262.913 151.976 260.267 150.506 257.131 150.506C253.995 150.506 251.251 152.074 249.977 156.484ZM75.2009 267.6V206H90.0009L91.1209 210.56C93.5209 207.52 97.2009 205.36 101.681 205.36C112.641 205.36 121.521 215.6 121.521 228.08C121.521 240.64 112.641 250.88 101.681 250.88C97.5209 250.88 94.0009 249.04 91.6009 246.32V267.6H75.2009ZM91.6009 228.08C91.6009 231.84 94.5609 234.8 98.3209 234.8C102.081 234.8 104.881 231.84 104.881 228.08C104.881 224.4 102.081 221.44 98.3209 221.44C94.5609 221.44 91.6009 224.4 91.6009 228.08ZM126.295 250V206H141.095L142.375 210.96C144.855 207.6 148.695 205.6 154.055 205.6C155.735 205.6 157.415 205.76 159.015 206L155.655 221.68C155.255 221.6 154.935 221.6 154.535 221.6C149.815 221.6 142.695 222.8 142.695 234.16V250H126.295ZM181.74 250.88C167.34 250.88 157.82 240.64 157.82 228.08C157.82 215.6 167.98 205.36 180.54 205.36C193.1 205.36 203.34 215.6 203.34 228.08C203.34 229.44 203.18 231.44 202.94 233.04H175.5C176.78 236 179.26 238.08 182.78 238.08C186.46 238.08 188.62 236.64 190.22 235.44L201.34 242.56C197.02 247.84 188.78 250.88 181.74 250.88ZM175.1 222.64H186.7C185.66 218.96 183.5 217.76 180.94 217.76C178.38 217.76 176.14 219.04 175.1 222.64ZM225.167 251.44C217.887 251.44 210.607 248.96 205.407 244.08L214.927 234.88C217.647 236.96 220.847 238.32 224.767 238.32C226.687 238.32 228.047 237.68 228.047 236.56C228.047 232.4 206.687 234.24 206.687 219.28C206.687 210.48 213.967 204.88 224.527 204.88C231.407 204.88 238.847 206.64 243.727 212.16L235.247 220.56C233.247 218.64 229.327 217.44 226.687 217.44C224.047 217.44 223.087 218.24 223.087 219.04C223.087 222.96 244.687 220.4 244.687 236.08C244.687 246.64 235.727 251.44 225.167 251.44ZM266.886 251.44C259.606 251.44 252.326 248.96 247.126 244.08L256.646 234.88C259.366 236.96 262.566 238.32 266.486 238.32C268.406 238.32 269.766 237.68 269.766 236.56C269.766 232.4 248.406 234.24 248.406 219.28C248.406 210.48 255.686 204.88 266.246 204.88C273.126 204.88 280.566 206.64 285.446 212.16L276.966 220.56C274.966 218.64 271.046 217.44 268.406 217.44C265.766 217.44 264.806 218.24 264.806 219.04C264.806 222.96 286.406 220.4 286.406 236.08C286.406 246.64 277.446 251.44 266.886 251.44Z" fill="#FFEEDB"/>
<path d="M124.627 147.076L127.389 151.244L131.728 148.368L128.68 144.149L124.627 147.076ZM108.065 158.052L104.653 161.707L107.538 164.4L110.827 162.22L108.065 158.052ZM108.359 167.558L111.155 163.413L107.12 160.691L104.29 164.652L108.359 167.558ZM124.921 178.73L129.073 181.516L131.852 177.374L127.717 174.585L124.921 178.73ZM101.793 191.078V186.078C89.1912 186.078 78.9609 175.795 78.9609 163.148H73.9609H68.9609C68.9609 181.273 83.6226 196.078 101.793 196.078V191.078ZM73.9609 163.148H78.9609C78.9609 150.61 89.1798 140.316 101.793 140.316V135.316V130.316C83.634 130.316 68.9609 145.11 68.9609 163.148H73.9609ZM101.793 135.316V140.316C109.497 140.316 116.358 144.167 120.574 150.003L124.627 147.076L128.68 144.149C122.704 135.873 112.905 130.316 101.793 130.316V135.316ZM124.627 147.076L121.865 142.908L105.303 153.884L108.065 158.052L110.827 162.22L127.389 151.244L124.627 147.076ZM108.065 158.052L111.477 154.397C109.046 152.128 105.46 150.7 101.793 150.7V155.7V160.7C103.025 160.7 104.144 161.232 104.653 161.707L108.065 158.052ZM101.793 155.7V150.7C94.6334 150.7 89.3449 156.357 89.3449 163.148H94.3449H99.3449C99.3449 161.707 100.328 160.7 101.793 160.7V155.7ZM94.3449 163.148H89.3449C89.3449 169.993 94.5912 175.694 101.793 175.694V170.694V165.694C100.371 165.694 99.3449 164.731 99.3449 163.148H94.3449ZM101.793 170.694V175.694C105.758 175.694 109.859 174.06 112.428 170.464L108.359 167.558L104.29 164.652C103.918 165.172 103.12 165.694 101.793 165.694V170.694ZM108.359 167.558L105.563 171.703L122.125 182.875L124.921 178.73L127.717 174.585L111.155 163.413L108.359 167.558ZM124.921 178.73L120.769 175.944C116.661 182.065 109.663 186.078 101.793 186.078V191.078V196.078C113.131 196.078 123.185 190.291 129.073 181.516L124.921 178.73ZM163.744 141.392L159.87 144.553L166.245 152.367L168.605 142.562L163.744 141.392ZM165.018 136.1V131.1H161.079L160.157 134.93L165.018 136.1ZM183.148 136.1H188.148V131.1H183.148V136.1ZM183.148 190V195H188.148V190H183.148ZM165.018 190L160.163 191.193L161.098 195H165.018V190ZM163.646 184.414L168.502 183.221L166.062 173.285L159.722 181.316L163.646 184.414ZM150.71 190.784V185.784C140.67 185.784 131.406 176.147 131.406 162.952H126.406H121.406C121.406 180.333 133.898 195.784 150.71 195.784V190.784ZM126.406 162.952H131.406C131.406 149.647 140.681 140.022 150.71 140.022V135.022V130.022C133.888 130.022 121.406 145.485 121.406 162.952H126.406ZM150.71 135.022V140.022C154.471 140.022 157.63 141.806 159.87 144.553L163.744 141.392L167.619 138.231C163.783 133.529 157.925 130.022 150.71 130.022V135.022ZM163.744 141.392L168.605 142.562L169.879 137.27L165.018 136.1L160.157 134.93L158.883 140.222L163.744 141.392ZM165.018 136.1V141.1H183.148V136.1V131.1H165.018V136.1ZM183.148 136.1H178.148V190H183.148H188.148V136.1H183.148ZM183.148 190V185H165.018V190V195H183.148V190ZM165.018 190L169.874 188.807L168.502 183.221L163.646 184.414L158.791 185.607L160.163 191.193L165.018 190ZM163.646 184.414L159.722 181.316C157.609 183.993 154.482 185.784 150.71 185.784V190.784V195.784C157.914 195.784 163.804 192.283 167.571 187.512L163.646 184.414ZM146.79 162.952H141.79C141.79 170.101 147.34 176.086 154.826 176.086V171.086V166.086C153.1 166.086 151.79 164.819 151.79 162.952H146.79ZM154.826 171.086V176.086C162.154 176.086 168.058 170.26 168.058 162.952H163.058H158.058C158.058 164.66 156.71 166.086 154.826 166.086V171.086ZM163.058 162.952H168.058C168.058 155.585 162.194 149.72 154.826 149.72V154.72V159.72C156.671 159.72 158.058 161.107 158.058 162.952H163.058ZM154.826 154.72V149.72C147.302 149.72 141.79 155.744 141.79 162.952H146.79H151.79C151.79 160.948 153.139 159.72 154.826 159.72V154.72ZM214.966 190L214.942 195L219.966 195.024V190H214.966ZM194.876 189.902H189.876V194.878L194.852 194.902L194.876 189.902ZM194.876 153.74H199.876V148.74H194.876V153.74ZM188.016 153.74H183.016V158.74H188.016V153.74ZM188.016 136.1V131.1H183.016V136.1H188.016ZM194.876 136.1V141.1H199.876V136.1H194.876ZM230.744 113.56L235.557 114.916L236.795 110.521L232.53 108.89L230.744 113.56ZM225.746 131.298L224.877 136.222L229.332 137.008L230.559 132.654L225.746 131.298ZM214.966 136.1H209.966V141.1H214.966V136.1ZM225.746 136.1H230.746V131.1H225.746V136.1ZM225.746 153.74V158.74H230.746V153.74H225.746ZM214.966 153.74V148.74H209.966V153.74H214.966ZM214.966 190L214.99 185L194.9 184.902L194.876 189.902L194.852 194.902L214.942 195L214.966 190ZM194.876 189.902H199.876V153.74H194.876H189.876V189.902H194.876ZM194.876 153.74V148.74H188.016V153.74V158.74H194.876V153.74ZM188.016 153.74H193.016V136.1H188.016H183.016V153.74H188.016ZM188.016 136.1V141.1H194.876V136.1V131.1H188.016V136.1ZM194.876 136.1H199.876V135.708H194.876H189.876V136.1H194.876ZM194.876 135.708H199.876C199.876 128.339 202.373 123.782 205.645 120.988C209.047 118.082 213.863 116.6 219.18 116.6V111.6V106.6C212.149 106.6 204.813 108.548 199.15 113.384C193.357 118.332 189.876 125.829 189.876 135.708H194.876ZM219.18 111.6V116.6C223.066 116.6 226.272 117.203 228.958 118.23L230.744 113.56L232.53 108.89C228.552 107.369 224.114 106.6 219.18 106.6V111.6ZM230.744 113.56L225.931 112.204L220.933 129.942L225.746 131.298L230.559 132.654L235.557 114.916L230.744 113.56ZM225.746 131.298L226.615 126.374C225.025 126.093 223.71 125.808 221.434 125.808V130.808V135.808C222.686 135.808 223.135 135.915 224.877 136.222L225.746 131.298ZM221.434 130.808V125.808C218.446 125.808 215.541 126.519 213.3 128.395C210.954 130.359 209.966 133.075 209.966 135.708H214.966H219.966C219.966 135.618 219.981 135.655 219.932 135.769C219.878 135.895 219.792 136.002 219.719 136.063C219.586 136.175 219.915 135.808 221.434 135.808V130.808ZM214.966 135.708H209.966V136.1H214.966H219.966V135.708H214.966ZM214.966 136.1V141.1H225.746V136.1V131.1H214.966V136.1ZM225.746 136.1H220.746V153.74H225.746H230.746V136.1H225.746ZM225.746 153.74V148.74H214.966V153.74V158.74H225.746V153.74ZM214.966 153.74H209.966V190H214.966H219.966V153.74H214.966ZM284.081 169.224V174.224H288.387L289.025 169.966L284.081 169.224ZM250.467 169.224V164.224H242.857L245.877 171.209L250.467 169.224ZM268.499 172.164L271.195 167.953L268.274 166.083L265.499 168.164L268.499 172.164ZM282.121 180.886L285.99 184.052L289.548 179.704L284.817 176.675L282.121 180.886ZM249.977 156.484L245.173 155.096L243.328 161.484H249.977V156.484ZM264.187 156.484V161.484H270.795L268.998 155.124L264.187 156.484ZM258.111 191.078V186.078C243.175 186.078 233.809 175.716 233.809 163.148H228.809H223.809C223.809 181.352 237.766 196.078 258.111 196.078V191.078ZM228.809 163.148H233.809C233.809 150.61 244.027 140.316 256.641 140.316V135.316V130.316C238.482 130.316 223.809 145.11 223.809 163.148H228.809ZM256.641 135.316V140.316C269.277 140.316 279.571 150.633 279.571 163.148H284.571H289.571C289.571 145.087 274.777 130.316 256.641 130.316V135.316ZM284.571 163.148H279.571C279.571 164.528 279.399 166.728 279.136 168.482L284.081 169.224L289.025 169.966C289.35 167.8 289.571 165.1 289.571 163.148H284.571ZM284.081 169.224V164.224H250.467V169.224V174.224H284.081V169.224ZM250.467 169.224L245.877 171.209C248.076 176.293 252.703 180.398 259.385 180.398V175.398V170.398C257.442 170.398 255.993 169.407 255.056 167.239L250.467 169.224ZM259.385 175.398V180.398C265.469 180.398 269.177 177.905 271.499 176.164L268.499 172.164L265.499 168.164C263.9 169.363 262.316 170.398 259.385 170.398V175.398ZM268.499 172.164L265.802 176.375L279.424 185.097L282.121 180.886L284.817 176.675L271.195 167.953L268.499 172.164ZM282.121 180.886L278.251 177.72C274.151 182.731 265.665 186.078 258.111 186.078V191.078V196.078C267.804 196.078 279.506 191.977 285.99 184.052L282.121 180.886ZM249.977 156.484V161.484H264.187V156.484V151.484H249.977V156.484ZM264.187 156.484L268.998 155.124C268.155 152.142 266.692 149.597 264.402 147.838C262.097 146.069 259.488 145.506 257.131 145.506V150.506V155.506C257.909 155.506 258.191 155.678 258.312 155.771C258.447 155.874 258.944 156.318 259.375 157.844L264.187 156.484ZM257.131 150.506V145.506C254.716 145.506 252.111 146.121 249.824 147.865C247.543 149.604 246.033 152.118 245.173 155.096L249.977 156.484L254.78 157.872C255.194 156.44 255.694 155.965 255.887 155.818C256.074 155.675 256.409 155.506 257.131 155.506V150.506ZM75.2009 267.6H70.2009V272.6H75.2009V267.6ZM75.2009 206V201H70.2009V206H75.2009ZM90.0009 206L94.8566 204.807L93.9215 201H90.0009V206ZM91.1209 210.56L86.2652 211.753L88.7056 221.689L95.0453 213.658L91.1209 210.56ZM91.6009 246.32L95.3501 243.012L86.6009 233.096V246.32H91.6009ZM91.6009 267.6V272.6H96.6009V267.6H91.6009ZM75.2009 267.6H80.2009V206H75.2009H70.2009V267.6H75.2009ZM75.2009 206V211H90.0009V206V201H75.2009V206ZM90.0009 206L85.1452 207.193L86.2652 211.753L91.1209 210.56L95.9766 209.367L94.8566 204.807L90.0009 206ZM91.1209 210.56L95.0453 213.658C96.6186 211.665 98.9171 210.36 101.681 210.36V205.36V200.36C95.4848 200.36 90.4232 203.375 87.1965 207.462L91.1209 210.56ZM101.681 205.36V210.36C109.255 210.36 116.521 217.693 116.521 228.08H121.521H126.521C126.521 213.507 116.027 200.36 101.681 200.36V205.36ZM121.521 228.08H116.521C116.521 238.559 109.245 245.88 101.681 245.88V250.88V255.88C116.037 255.88 126.521 242.721 126.521 228.08H121.521ZM101.681 250.88V245.88C99.07 245.88 96.8794 244.745 95.3501 243.012L91.6009 246.32L87.8517 249.628C91.1224 253.335 95.9719 255.88 101.681 255.88V250.88ZM91.6009 246.32H86.6009V267.6H91.6009H96.6009V246.32H91.6009ZM91.6009 267.6V262.6H75.2009V267.6V272.6H91.6009V267.6ZM91.6009 228.08H86.6009C86.6009 234.601 91.7995 239.8 98.3209 239.8V234.8V229.8C97.3223 229.8 96.6009 229.079 96.6009 228.08H91.6009ZM98.3209 234.8V239.8C104.999 239.8 109.881 234.442 109.881 228.08H104.881H99.8809C99.8809 228.7 99.6594 229.123 99.4165 229.374C99.1848 229.614 98.8404 229.8 98.3209 229.8V234.8ZM104.881 228.08H109.881C109.881 221.759 104.961 216.44 98.3209 216.44V221.44V226.44C98.8423 226.44 99.1945 226.628 99.4309 226.87C99.6787 227.125 99.8809 227.527 99.8809 228.08H104.881ZM98.3209 221.44V216.44C91.8387 216.44 86.6009 221.6 86.6009 228.08H91.6009H96.6009C96.6009 227.2 97.2831 226.44 98.3209 226.44V221.44ZM126.295 250H121.295V255H126.295V250ZM126.295 206V201H121.295V206H126.295ZM141.095 206L145.936 204.751L144.968 201H141.095V206ZM142.375 210.96L137.533 212.209L140.159 222.382L146.398 213.929L142.375 210.96ZM159.015 206L163.904 207.048L165.019 201.845L159.756 201.055L159.015 206ZM155.655 221.68L154.674 226.583L159.51 227.55L160.544 222.728L155.655 221.68ZM142.695 250V255H147.695V250H142.695ZM126.295 250H131.295V206H126.295H121.295V250H126.295ZM126.295 206V211H141.095V206V201H126.295V206ZM141.095 206L136.253 207.249L137.533 212.209L142.375 210.96L147.216 209.711L145.936 204.751L141.095 206ZM142.375 210.96L146.398 213.929C147.828 211.991 150.093 210.6 154.055 210.6V205.6V200.6C147.296 200.6 141.881 203.209 138.352 207.991L142.375 210.96ZM154.055 205.6V210.6C155.426 210.6 156.85 210.731 158.273 210.945L159.015 206L159.756 201.055C157.979 200.789 156.044 200.6 154.055 200.6V205.6ZM159.015 206L154.126 204.952L150.766 220.632L155.655 221.68L160.544 222.728L163.904 207.048L159.015 206ZM155.655 221.68L156.635 216.777C155.691 216.588 154.911 216.6 154.535 216.6V221.6V226.6C154.586 226.6 154.627 226.6 154.665 226.6C154.702 226.6 154.731 226.6 154.755 226.601C154.802 226.601 154.818 226.602 154.817 226.602C154.814 226.602 154.794 226.601 154.763 226.597C154.732 226.593 154.702 226.588 154.674 226.583L155.655 221.68ZM154.535 221.6V216.6C151.922 216.6 147.608 216.888 143.908 219.573C139.887 222.492 137.695 227.374 137.695 234.16H142.695H147.695C147.695 229.586 149.062 228.188 149.781 227.667C150.821 226.912 152.427 226.6 154.535 226.6V221.6ZM142.695 234.16H137.695V250H142.695H147.695V234.16H142.695ZM142.695 250V245H126.295V250V255H142.695V250ZM202.94 233.04V238.04H207.246L207.884 233.782L202.94 233.04ZM175.5 233.04V228.04H167.89L170.91 235.025L175.5 233.04ZM190.22 235.44L192.916 231.229L189.995 229.359L187.22 231.44L190.22 235.44ZM201.34 242.56L205.209 245.726L208.767 241.378L204.036 238.349L201.34 242.56ZM175.1 222.64L170.296 221.252L168.451 227.64H175.1V222.64ZM186.7 222.64V227.64H193.309L191.511 221.28L186.7 222.64ZM181.74 250.88V245.88C170.044 245.88 162.82 237.822 162.82 228.08H157.82H152.82C152.82 243.458 164.635 255.88 181.74 255.88V250.88ZM157.82 228.08H162.82C162.82 218.35 170.753 210.36 180.54 210.36V205.36V200.36C165.207 200.36 152.82 212.85 152.82 228.08H157.82ZM180.54 205.36V210.36C190.35 210.36 198.34 218.373 198.34 228.08H203.34H208.34C208.34 212.827 195.85 200.36 180.54 200.36V205.36ZM203.34 228.08H198.34C198.34 229.154 198.204 230.904 197.995 232.298L202.94 233.04L207.884 233.782C208.155 231.976 208.34 229.726 208.34 228.08H203.34ZM202.94 233.04V228.04H175.5V233.04V238.04H202.94V233.04ZM175.5 233.04L170.91 235.025C172.821 239.443 176.89 243.08 182.78 243.08V238.08V233.08C181.63 233.08 180.738 232.557 180.089 231.055L175.5 233.04ZM182.78 238.08V243.08C188.036 243.08 191.258 240.911 193.22 239.44L190.22 235.44L187.22 231.44C186.514 231.969 185.96 232.338 185.324 232.608C184.726 232.862 183.93 233.08 182.78 233.08V238.08ZM190.22 235.44L187.524 239.651L198.644 246.771L201.34 242.56L204.036 238.349L192.916 231.229L190.22 235.44ZM201.34 242.56L197.47 239.394C194.342 243.217 187.71 245.88 181.74 245.88V250.88V255.88C189.849 255.88 199.697 252.463 205.209 245.726L201.34 242.56ZM175.1 222.64V227.64H186.7V222.64V217.64H175.1V222.64ZM186.7 222.64L191.511 221.28C190.785 218.712 189.502 216.441 187.434 214.854C185.353 213.256 183.01 212.76 180.94 212.76V217.76V222.76C181.43 222.76 181.447 222.864 181.345 222.786C181.257 222.719 181.574 222.888 181.888 224L186.7 222.64ZM180.94 217.76V212.76C178.813 212.76 176.478 213.303 174.418 214.874C172.364 216.44 171.039 218.679 170.296 221.252L175.1 222.64L179.903 224.028C180.053 223.509 180.21 223.2 180.316 223.032C180.417 222.872 180.48 222.827 180.481 222.826C180.481 222.826 180.488 222.818 180.533 222.805C180.587 222.788 180.714 222.76 180.94 222.76V217.76ZM205.407 244.08L201.933 240.485L198.157 244.133L201.986 247.726L205.407 244.08ZM214.927 234.88L217.964 230.908L214.547 228.295L211.453 231.285L214.927 234.88ZM243.727 212.16L247.246 215.712L250.602 212.388L247.473 208.848L243.727 212.16ZM235.247 220.56L231.785 224.167L235.302 227.544L238.766 224.112L235.247 220.56ZM225.167 251.44V246.44C218.952 246.44 212.961 244.312 208.829 240.434L205.407 244.08L201.986 247.726C208.253 253.608 216.822 256.44 225.167 256.44V251.44ZM205.407 244.08L208.882 247.675L218.402 238.475L214.927 234.88L211.453 231.285L201.933 240.485L205.407 244.08ZM214.927 234.88L211.89 238.852C215.329 241.482 219.572 243.32 224.767 243.32V238.32V233.32C222.123 233.32 219.965 232.438 217.964 230.908L214.927 234.88ZM224.767 238.32V243.32C226.18 243.32 227.88 243.1 229.424 242.301C231.074 241.448 233.047 239.572 233.047 236.56H228.047H223.047C223.047 235.76 223.311 234.988 223.755 234.375C224.163 233.812 224.608 233.534 224.83 233.419C225.214 233.22 225.274 233.32 224.767 233.32V238.32ZM228.047 236.56H233.047C233.047 233.521 230.987 231.776 229.841 231.036C228.67 230.28 227.299 229.79 226.245 229.45C225.138 229.093 223.821 228.733 222.665 228.402C221.441 228.052 220.238 227.691 219.067 227.268C216.664 226.399 214.796 225.402 213.555 224.165C212.47 223.084 211.687 221.659 211.687 219.28H206.687H201.687C201.687 224.381 203.574 228.336 206.495 231.247C209.259 234.003 212.73 235.611 215.668 236.672C217.167 237.214 218.633 237.65 219.913 238.016C221.259 238.401 222.278 238.678 223.174 238.967C224.123 239.273 224.421 239.44 224.418 239.437C224.388 239.419 224.071 239.216 223.741 238.754C223.361 238.223 223.047 237.459 223.047 236.56H228.047ZM206.687 219.28H211.687C211.687 216.396 212.819 214.238 214.762 212.692C216.81 211.06 220.083 209.88 224.527 209.88V204.88V199.88C218.411 199.88 212.764 201.5 208.533 204.868C204.196 208.322 201.687 213.364 201.687 219.28H206.687ZM224.527 204.88V209.88C230.752 209.88 236.466 211.496 239.981 215.472L243.727 212.16L247.473 208.848C241.228 201.784 232.062 199.88 224.527 199.88V204.88ZM243.727 212.16L240.208 208.608L231.728 217.008L235.247 220.56L238.766 224.112L247.246 215.712L243.727 212.16ZM235.247 220.56L238.71 216.953C236.998 215.31 234.781 214.226 232.843 213.555C230.866 212.871 228.669 212.44 226.687 212.44V217.44V222.44C227.345 222.44 228.428 222.609 229.572 223.005C230.753 223.414 231.496 223.89 231.785 224.167L235.247 220.56ZM226.687 217.44V212.44C224.973 212.44 223.152 212.682 221.568 213.515C219.847 214.421 218.087 216.287 218.087 219.04H223.087H228.087C228.087 219.89 227.818 220.687 227.375 221.32C226.955 221.919 226.484 222.229 226.226 222.365C225.782 222.598 225.761 222.44 226.687 222.44V217.44ZM223.087 219.04H218.087C218.087 222.282 220.45 223.979 221.544 224.601C222.723 225.272 224.098 225.687 225.138 225.973C227.691 226.674 229.715 227.025 232.298 227.891C234.693 228.694 236.546 229.658 237.776 230.888C238.849 231.962 239.687 233.465 239.687 236.08H244.687H249.687C249.687 230.855 247.826 226.798 244.849 223.819C242.028 220.997 238.481 219.416 235.476 218.409C232.66 217.465 229.283 216.741 227.787 216.33C227.345 216.209 227.014 216.106 226.768 216.018C226.509 215.925 226.441 215.882 226.486 215.908C226.51 215.921 226.871 216.121 227.254 216.607C227.703 217.176 228.087 218.025 228.087 219.04H223.087ZM244.687 236.08H239.687C239.687 239.726 238.244 242.049 235.998 243.639C233.543 245.377 229.785 246.44 225.167 246.44V251.44V256.44C231.11 256.44 237.111 255.103 241.776 251.801C246.65 248.351 249.687 242.994 249.687 236.08H244.687ZM247.126 244.08L243.651 240.485L239.876 244.133L243.704 247.726L247.126 244.08ZM256.646 234.88L259.683 230.908L256.265 228.295L253.171 231.285L256.646 234.88ZM285.446 212.16L288.965 215.712L292.321 212.388L289.192 208.848L285.446 212.16ZM276.966 220.56L273.503 224.167L277.021 227.544L280.485 224.112L276.966 220.56ZM266.886 251.44V246.44C260.671 246.44 254.68 244.312 250.547 240.434L247.126 244.08L243.704 247.726C249.972 253.608 258.541 256.44 266.886 256.44V251.44ZM247.126 244.08L250.601 247.675L260.121 238.475L256.646 234.88L253.171 231.285L243.651 240.485L247.126 244.08ZM256.646 234.88L253.609 238.852C257.048 241.482 261.29 243.32 266.486 243.32V238.32V233.32C263.842 233.32 261.684 232.438 259.683 230.908L256.646 234.88ZM266.486 238.32V243.32C267.899 243.32 269.599 243.1 271.143 242.301C272.793 241.448 274.766 239.572 274.766 236.56H269.766H264.766C264.766 235.76 265.029 234.988 265.474 234.375C265.881 233.812 266.327 233.534 266.549 233.419C266.933 233.22 266.993 233.32 266.486 233.32V238.32ZM269.766 236.56H274.766C274.766 233.521 272.706 231.776 271.56 231.036C270.388 230.28 269.017 229.79 267.964 229.45C266.857 229.093 265.54 228.733 264.384 228.402C263.16 228.052 261.956 227.691 260.785 227.268C258.383 226.399 256.514 225.402 255.273 224.165C254.189 223.084 253.406 221.659 253.406 219.28H248.406H243.406C243.406 224.381 245.293 228.336 248.213 231.247C250.977 234.003 254.449 235.611 257.386 236.672C258.885 237.214 260.352 237.65 261.631 238.016C262.978 238.401 263.997 238.678 264.893 238.967C265.842 239.273 266.14 239.44 266.136 239.437C266.107 239.419 265.79 239.216 265.459 238.754C265.08 238.223 264.766 237.459 264.766 236.56H269.766ZM248.406 219.28H253.406C253.406 216.396 254.537 214.238 256.48 212.692C258.529 211.06 261.802 209.88 266.246 209.88V204.88V199.88C260.13 199.88 254.483 201.5 250.252 204.868C245.914 208.322 243.406 213.364 243.406 219.28H248.406ZM266.246 204.88V209.88C272.471 209.88 278.185 211.496 281.7 215.472L285.446 212.16L289.192 208.848C282.947 201.784 273.781 199.88 266.246 199.88V204.88ZM285.446 212.16L281.927 208.608L273.447 217.008L276.966 220.56L280.485 224.112L288.965 215.712L285.446 212.16ZM276.966 220.56L280.429 216.953C278.717 215.31 276.5 214.226 274.561 213.555C272.585 212.871 270.388 212.44 268.406 212.44V217.44V222.44C269.064 222.44 270.147 222.609 271.29 223.005C272.472 223.414 273.215 223.89 273.503 224.167L276.966 220.56ZM268.406 217.44V212.44C266.692 212.44 264.871 212.682 263.287 213.515C261.566 214.421 259.806 216.287 259.806 219.04H264.806H269.806C269.806 219.89 269.536 220.687 269.093 221.32C268.674 221.919 268.203 222.229 267.945 222.365C267.501 222.598 267.48 222.44 268.406 222.44V217.44ZM264.806 219.04H259.806C259.806 222.282 262.168 223.979 263.263 224.601C264.442 225.272 265.817 225.687 266.857 225.973C269.41 226.674 271.433 227.025 274.017 227.891C276.412 228.694 278.265 229.658 279.494 230.888C280.568 231.962 281.406 233.465 281.406 236.08H286.406H291.406C291.406 230.855 289.544 226.798 286.568 223.819C283.747 220.997 280.2 219.416 277.195 218.409C274.379 217.465 271.002 216.741 269.505 216.33C269.064 216.209 268.733 216.106 268.486 216.018C268.228 215.925 268.16 215.882 268.205 215.908C268.229 215.921 268.59 216.121 268.973 216.607C269.422 217.176 269.806 218.025 269.806 219.04H264.806ZM286.406 236.08H281.406C281.406 239.726 279.963 242.049 277.717 243.639C275.262 245.377 271.503 246.44 266.886 246.44V251.44V256.44C272.828 256.44 278.83 255.103 283.495 251.801C288.369 248.351 291.406 242.994 291.406 236.08H286.406Z" fill="#FF3102" mask="url(#path-2-outside-1_56_20)"/>
</svg>
